<!--?xml version="1.0" encoding="UTF-8" standalone="no"?-->
<svg xmlns:dc="http://purl.org/dc/elements/1.1/" xmlns:cc="http://creativecommons.org/ns#" xmlns:rdf="http://www.w3.org/1999/02/22-rdf-syntax-ns#" xmlns:svg="http://www.w3.org/2000/svg" xmlns="http://www.w3.org/2000/svg" xmlns:sodipodi="http://sodipodi.sourceforge.net/DTD/sodipodi-0.dtd" xmlns:inkscape="http://www.inkscape.org/namespaces/inkscape" id="svg8" version="1.1" viewBox="0 0 50 50" height="50mm" width="50mm" sodipodi:docname="loader.svg" inkscape:version="0.92.4 5da689c313, 2019-01-14" style="">
  <sodipodi:namedview pagecolor="#454545" bordercolor="#666666" borderopacity="1" objecttolerance="10" gridtolerance="10" guidetolerance="10" inkscape:pageopacity="0" inkscape:pageshadow="2" inkscape:window-width="640" inkscape:window-height="480" id="namedview833" showgrid="false" inkscape:zoom="1.551906" inkscape:cx="62.27533" inkscape:cy="73.33999" inkscape:current-layer="g1180"></sodipodi:namedview>
  <defs id="defs2"></defs>
  <metadata id="metadata5">
    <rdf:rdf>
      <cc:work rdf:about="">
        <dc:format>image/svg+xml</dc:format>
        <dc:type rdf:resource="http://purl.org/dc/dcmitype/StillImage"></dc:type>
        <dc:title></dc:title>
      </cc:work>
    </rdf:rdf>
  </metadata>
  <g id="layer1" transform="translate(0,-166)">
    <g transform="translate(-84.66667,-6.047619)" id="g1176">
      <g transform="translate(901.4965,-113.5977)" id="g1180">
        <path id="path30" d="m -792.4058,329.521 c -1.9859,-0.2468 -4.0446,-1.8496 -6.0287,-4.6936 -0.3577,-0.5129 -1.026,-1.5834 -1.0345,-1.6571 0,-0.013 -0.056,-0.1303 -0.1213,-0.2602 -0.065,-0.13 -0.1153,-0.2454 -0.1113,-0.2565 0.01,-0.011 0.1078,-0.091 0.2306,-0.1778 1.9253,-1.3604 3.1311,-3.4363 3.4189,-5.8856 0.041,-0.3447 0.041,-1.4322 0,-1.777 -0.1666,-1.4183 -0.6109,-2.6481 -1.3639,-3.7756 -0.1105,-0.1656 -0.201,-0.3079 -0.201,-0.3163 0,-0.016 0.4042,-0.2665 0.6264,-0.3883 1.1859,-0.6503 2.3875,-1.0473 3.7083,-1.2252 0.4799,-0.065 1.6354,-0.091 2.1284,-0.049 1.4845,0.128 2.8277,0.53 4.1107,1.2303 0.2459,0.1342 0.7263,0.421 0.7812,0.4664 0.01,0.01 -0.083,0.1453 -0.1945,0.3148 -0.4251,0.6468 -0.7161,1.2444 -0.9539,1.9592 l -0.078,0.2341 h -0.4535 c -0.2495,0 -0.4536,-0.01 -0.4536,-0.02 0,-0.045 0.1446,-0.4972 0.2405,-0.7522 0.1185,-0.315 0.3886,-0.8939 0.4287,-0.9187 0.064,-0.039 0.011,-0.084 -0.2669,-0.2229 -1.7212,-0.8595 -3.6081,-1.1359 -5.534,-0.8107 -0.7981,0.1347 -1.8644,0.4974 -2.5572,0.8695 l -0.1602,0.086 0.072,0.122 c 0.2706,0.4568 0.565,1.1931 0.7134,1.7849 0.1593,0.6345 0.2021,0.98 0.2048,1.6511 0.01,0.8978 -0.011,1.0576 -0.1687,1.7891 -0.281,1.3069 -0.8199,2.6649 -1.4755,3.7185 -0.1828,0.2938 -0.607,0.8642 -0.8063,1.0845 -0.078,0.086 -0.1555,0.1744 -0.173,0.1969 -0.028,0.036 -0.01,0.086 0.1661,0.3842 1.9495,3.3856 4.3471,5.505 6.0002,5.304 0.6418,-0.078 1.3837,-0.4557 2.139,-1.0886 0.3654,-0.3061 1.0482,-0.9988 1.4023,-1.4224 0.5329,-0.6376 1.1497,-1.5004 1.6448,-2.3006 l 0.2198,-0.3554 -0.079,-0.065 c -0.3221,-0.2649 -0.6368,-0.6288 -0.9309,-1.0765 -0.3124,-0.4757 -0.6479,-1.1543 -0.8177,-1.6543 -0.036,-0.1056 -0.071,-0.1921 -0.077,-0.1921 -0.01,0 -0.5913,0.3801 -1.2996,0.8448 l -1.2877,0.8448 v -0.8688 -0.8689 l 1.2636,-0.8525 c 0.6951,-0.4689 1.2917,-0.8644 1.3258,-0.8791 0.034,-0.014 0.1623,-0.088 0.285,-0.162 0.1441,-0.088 0.226,-0.1249 0.2316,-0.1055 0.01,0.016 0.044,0.1812 0.087,0.3662 0.3157,1.3626 1.0129,2.6589 2.0025,3.7232 0.3491,0.3754 0.7641,0.7307 1.3455,1.1517 l 0.066,0.048 -0.1473,0.2983 c -0.3709,0.7513 -1.2798,2.1194 -2.0335,3.061 -1.6215,2.0257 -3.2918,3.2311 -4.8606,3.5077 -0.2703,0.047 -0.9224,0.068 -1.1768,0.036 z m 11.9117,-6.2975 c -0.1782,-0.011 -0.3348,-0.03 -0.3481,-0.043 -0.016,-0.016 -0.011,-0.046 0.014,-0.089 0.021,-0.036 0.2036,-0.3513 0.4055,-0.7013 0.2019,-0.3501 0.3791,-0.6492 0.3937,-0.6649 0.016,-0.016 0.1724,-0.04 0.3748,-0.056 0.7912,-0.063 1.5659,-0.2813 2.2376,-0.6313 0.3043,-0.1586 0.3321,-0.1744 0.5122,-0.2906 1.2734,-0.8223 2.1472,-2.0708 2.5436,-3.6342 0.044,-0.1727 0.048,-0.2614 0.014,-0.2826 -0.013,-0.01 -0.1078,0.056 -0.2101,0.1423 -0.2069,0.175 -0.28,0.2352 -0.4381,0.3611 -0.1917,0.1526 -0.4359,0.3496 -0.5644,0.4551 -0.069,0.057 -0.1688,0.1369 -0.3615,0.2904 -0.2162,0.1721 -0.3141,0.2532 -0.3614,0.2991 -0.093,0.091 -0.1367,0.065 -0.3482,-0.2033 -0.2209,-0.2808 -0.2026,-0.2706 -0.5859,-0.3251 -0.3261,-0.046 -0.3311,-0.049 -0.317,-0.1852 0.01,-0.063 0.029,-0.2246 0.051,-0.36 0.021,-0.1354 0.055,-0.3515 0.075,-0.4803 0.02,-0.1288 0.052,-0.3314 0.071,-0.4503 0.043,-0.2676 0.094,-0.5945 0.1428,-0.9245 0.021,-0.1388 0.049,-0.3117 0.063,-0.3843 0.041,-0.218 0.073,-0.4639 0.062,-0.4748 -0.021,-0.021 -0.064,0.025 -0.1132,0.1223 -0.044,0.087 -1.4433,2.5148 -3.9188,6.8005 -0.3967,0.6868 -0.7472,1.2947 -0.7789,1.3509 -0.034,0.06 -0.075,0.102 -0.1003,0.102 -0.024,0 -0.155,-0.039 -0.2922,-0.086 -0.1371,-0.047 -0.3046,-0.1016 -0.3721,-0.1205 -0.067,-0.019 -0.2296,-0.092 -0.3602,-0.1619 -0.4243,-0.2276 -0.4829,-0.2753 -0.4198,-0.3411 0.026,-0.026 0.036,-0.044 1.3883,-2.3883 1.7434,-3.0211 3.0725,-5.324 3.9572,-6.8562 0.9113,-1.5784 1.3506,-2.3399 1.7125,-2.9689 0.1264,-0.2196 0.2503,-0.4121 0.2753,-0.4277 0.039,-0.024 0.072,-0.012 0.2176,0.074 0.095,0.056 0.2045,0.1357 0.2441,0.176 0.039,0.041 0.1261,0.1161 0.1921,0.1683 0.2109,0.1671 0.6169,0.5486 0.6345,0.5964 0.017,0.044 0.01,0.1126 -0.046,0.4487 -0.031,0.1878 -0.087,0.553 -0.1332,0.8645 -0.019,0.1255 -0.051,0.3308 -0.071,0.4562 -0.021,0.1256 -0.053,0.3309 -0.071,0.4564 -0.019,0.1254 -0.052,0.3416 -0.073,0.4803 -0.022,0.1386 -0.048,0.3115 -0.059,0.3842 -0.011,0.073 -0.026,0.1591 -0.035,0.1921 -0.01,0.033 -0.025,0.1303 -0.037,0.2161 -0.012,0.086 -0.039,0.2696 -0.061,0.4083 -0.021,0.1387 -0.054,0.3494 -0.072,0.4683 -0.018,0.1189 -0.046,0.2864 -0.062,0.3722 -0.041,0.2173 -0.04,0.2496 0,0.2583 0.021,0.01 0.064,-0.018 0.096,-0.049 0.058,-0.056 0.6189,-0.5145 0.7398,-0.6045 0.034,-0.026 0.1788,-0.1446 0.3205,-0.2642 0.1417,-0.1195 0.3453,-0.2876 0.4525,-0.3735 0.2434,-0.1948 0.505,-0.4063 0.7054,-0.5703 0.085,-0.069 0.1659,-0.1261 0.1804,-0.1261 0.048,0 0.093,0.1515 0.2026,0.6844 0.1636,0.7925 0.1982,1.6439 0.096,2.3739 -0.021,0.1473 -0.041,0.3002 -0.046,0.3398 -0.033,0.25 -0.1483,0.7256 -0.2434,0.9966 -0.021,0.059 -0.057,0.1729 -0.08,0.2522 -0.023,0.079 -0.075,0.2143 -0.1162,0.3002 -0.041,0.086 -0.08,0.1898 -0.087,0.231 -0.023,0.1308 -0.6744,1.2616 -0.7808,1.3539 -0.038,0.033 -0.1105,0.1203 -0.1612,0.1938 -0.2813,0.4085 -1.0106,1.1145 -1.5114,1.4633 -0.1899,0.1322 -0.5061,0.3332 -0.6951,0.4418 -1.1821,0.6795 -2.6617,1.0248 -4.0448,0.9441 z m -23.8069,-0.056 c 0,0 -0.096,-0.01 -0.2083,-0.018 -1.3737,-0.1003 -2.8934,-0.7007 -3.9433,-1.5581 -0.093,-0.076 -0.1766,-0.1381 -0.1857,-0.1381 -0.024,0 -0.7048,-0.6812 -0.8794,-0.8794 -0.08,-0.091 -0.2016,-0.247 -0.2701,-0.347 -0.069,-0.1 -0.1509,-0.2045 -0.1828,-0.2322 -0.096,-0.084 -0.5904,-0.9457 -0.5904,-1.0302 0,-0.026 -0.044,-0.1385 -0.099,-0.2501 -0.054,-0.1116 -0.1238,-0.2785 -0.1542,-0.371 -0.031,-0.092 -0.072,-0.2167 -0.092,-0.2761 -0.064,-0.1901 -0.171,-0.5914 -0.2111,-0.7925 -0.012,-0.059 -0.048,-0.3134 -0.08,-0.5644 -0.1903,-1.4819 0.075,-2.9584 0.7756,-4.3106 0.1493,-0.2883 0.2171,-0.4029 0.4012,-0.6784 0.1614,-0.2417 0.1692,-0.2525 0.3254,-0.4503 0.317,-0.4018 0.7547,-0.8478 1.1212,-1.1429 0.1222,-0.098 0.2222,-0.1895 0.2222,-0.2027 0,-0.023 0.1381,-0.1175 0.3649,-0.2491 l 0.1127,-0.065 0.058,0.091 c 0.032,0.051 0.1449,0.2429 0.2511,0.4278 0.1062,0.1849 0.4083,0.709 0.6714,1.1647 2.7211,4.7124 2.7131,4.6985 2.6963,4.7145 -0.01,0.01 -2.2428,1.3359 -3.5015,2.0801 -0.1626,0.096 -0.2923,0.178 -0.2882,0.182 0.01,0.01 0.4235,-0.013 0.932,-0.038 2.4707,-0.1215 4.0459,-0.1882 4.061,-0.1719 0.01,0.01 0.5648,0.9679 1.2347,2.1289 l 1.218,2.1111 -0.053,0.039 c -0.1089,0.082 -0.6148,0.346 -0.6965,0.3632 -0.047,0.01 -0.2145,0.063 -0.3727,0.1171 -0.1581,0.054 -0.3142,0.096 -0.3469,0.092 -0.051,-0.01 -0.1665,-0.1931 -0.8332,-1.3491 -0.4256,-0.7382 -0.7891,-1.3574 -0.8079,-1.3761 -0.051,-0.051 -4.0274,-0.062 -4.0471,-0.01 -0.013,0.034 0.011,0.058 0.2156,0.2135 0.7396,0.562 1.3457,0.8464 2.3635,1.1087 0.095,0.024 0.1065,0.039 0.2748,0.3316 0.097,0.1684 0.3042,0.5263 0.461,0.7953 0.1569,0.269 0.2794,0.5041 0.2724,0.5223 -0.01,0.022 -0.043,0.031 -0.099,0.028 -0.048,-0.01 -0.089,-0.01 -0.091,-0.01 z m -4.4805,-6.1801 c 2.1732,-1.2544 2.4227,-1.4024 2.4361,-1.4446 0.01,-0.026 -0.01,-0.073 -0.032,-0.1111 -0.044,-0.062 -0.3232,-0.5455 -1.4421,-2.4915 -0.2582,-0.4491 -0.4799,-0.8236 -0.4926,-0.8323 -0.042,-0.028 -0.082,0.01 -0.2021,0.1677 -0.6051,0.8192 -0.9584,1.6347 -1.1202,2.5858 -0.1237,0.7276 -0.092,1.7135 0.073,2.2436 0.018,0.059 0.033,0.1351 0.033,0.1702 0,0.077 0.021,0.102 0.074,0.088 0.021,-0.01 0.3243,-0.1749 0.673,-0.3761 z m 24.6409,4.9584 c -0.1628,-0.099 -0.372,-0.2472 -0.465,-0.33 -0.3884,-0.3456 -0.4784,-0.4373 -0.4682,-0.4763 0.01,-0.036 0.1906,-0.3526 1.4217,-2.4838 0.2136,-0.3698 0.6564,-1.1371 0.9839,-1.705 0.3275,-0.568 0.6858,-1.1879 0.7962,-1.3776 0.1104,-0.1897 0.2008,-0.3597 0.2008,-0.3777 0,-0.041 0.1629,0.057 -1.621,-0.9697 -0.8321,-0.4789 -1.5537,-0.8968 -1.6036,-0.9287 -0.05,-0.032 -0.1205,-0.064 -0.157,-0.071 -0.061,-0.012 -0.071,0 -0.1188,0.1029 -0.2537,0.5624 -0.4098,1.0356 -0.4861,1.4728 -0.015,0.086 -0.038,0.1994 -0.05,0.2522 -0.035,0.145 -0.062,0.65 -0.054,0.9798 0.027,0.9993 0.2911,1.9426 0.7794,2.7827 0.051,0.088 0.092,0.1854 0.092,0.2161 0,0.031 -0.1772,0.3585 -0.3921,0.7283 -0.2878,0.4954 -0.4024,0.6724 -0.4349,0.6724 -0.046,0 -0.1039,-0.072 -0.3382,-0.4203 -0.2119,-0.3148 -0.2165,-0.3218 -0.2341,-0.3602 -0.01,-0.02 -0.06,-0.1117 -0.1126,-0.2041 -0.336,-0.5877 -0.6261,-1.3854 -0.7657,-2.1047 -0.039,-0.2028 -0.077,-0.414 -0.084,-0.4693 -0.1409,-1.1273 -0.021,-2.3419 0.3268,-3.3216 0.026,-0.073 0.068,-0.1969 0.094,-0.2762 0.095,-0.2942 0.494,-1.0509 0.7861,-1.4907 0.1574,-0.2368 0.3103,-0.4521 0.34,-0.4785 0.029,-0.026 0.1,-0.1075 0.1561,-0.1801 0.1151,-0.1491 0.5245,-0.5704 0.7148,-0.7355 0.2572,-0.2234 0.2976,-0.2564 0.462,-0.3783 1.0233,-0.7578 2.2192,-1.2459 3.4478,-1.4069 0.4364,-0.057 1.1893,-0.077 1.5713,-0.041 0.1189,0.011 0.2486,0.023 0.2882,0.027 0.4337,0.039 1.1319,0.2097 1.681,0.4094 0.3296,0.1198 0.8868,0.3979 0.8958,0.447 0.01,0.022 -0.1537,0.3188 -0.3505,0.6604 -0.1968,0.3416 -0.8258,1.4315 -1.3979,2.4222 -2.716,4.7036 -5.2802,9.1469 -5.4497,9.4435 -0.047,0.082 -0.1018,0.1499 -0.1216,0.1498 -0.02,0 -0.1693,-0.081 -0.3321,-0.1795 z m 3.3749,-8.2791 c 0.014,-0.03 0.4545,-0.7992 0.98,-1.71 0.5254,-0.9108 0.9603,-1.675 0.9664,-1.6984 0.017,-0.063 -0.06,-0.085 -0.4408,-0.1268 -1.0943,-0.1197 -2.167,0.049 -3.1272,0.4932 -0.083,0.039 -0.1556,0.07 -0.1602,0.07 -0.054,0 -0.9223,0.5549 -1.0408,0.6651 -0.026,0.024 -0.094,0.084 -0.1515,0.1325 -0.2379,0.2023 -0.3622,0.3306 -0.3504,0.3614 0.01,0.018 0.3351,0.2183 0.7294,0.4455 0.3943,0.2271 1.106,0.6389 1.5815,0.9151 0.4796,0.2785 0.8923,0.503 0.9267,0.5042 0.043,0 0.07,-0.015 0.087,-0.052 z m -19.8341,7.5261 c -0.5368,-0.9293 -1.4834,-2.5693 -3.4049,-5.8991 -0.6784,-1.1756 -1.5486,-2.6831 -1.9338,-3.3501 -1.3119,-2.2717 -1.4512,-2.514 -1.4658,-2.5523 -0.01,-0.027 0.014,-0.056 0.079,-0.097 0.1837,-0.1161 0.4994,-0.275 0.5259,-0.2648 0.015,0.01 0.1338,-0.032 0.2642,-0.083 0.2156,-0.085 0.3711,-0.1366 0.7175,-0.2368 0.2221,-0.064 0.6716,-0.1493 1.0086,-0.1907 0.053,-0.01 0.1285,-0.016 0.1681,-0.022 0.1742,-0.025 1.0334,-0.032 1.2848,-0.011 1.025,0.087 2.1309,0.4162 2.9418,0.8761 0.079,0.045 0.1711,0.096 0.2041,0.1125 0.033,0.017 0.098,0.056 0.1441,0.085 0.046,0.03 0.1003,0.065 0.1201,0.077 0.02,0.013 0.1062,0.072 0.1921,0.1318 0.086,0.06 0.1831,0.1272 0.2161,0.1497 0.2633,0.1792 1.0931,0.9699 1.273,1.213 0.046,0.062 0.095,0.1136 0.1082,0.114 0.032,0 0.1919,0.26 0.6305,1.0214 0.4161,0.7222 0.4687,0.822 0.4498,0.8526 -0.01,0.012 0,0.053 0.021,0.089 0.059,0.1149 0.2038,0.5817 0.2815,0.9072 0.2669,1.1184 0.2699,2.2239 0.01,3.3885 -0.06,0.2669 -0.2231,0.7958 -0.3213,1.0403 -0.1496,0.3726 -0.4949,1.0571 -0.5722,1.1344 -0.016,0.016 -0.03,0.038 -0.03,0.049 0,0.011 -0.059,0.1028 -0.1326,0.2053 -0.073,0.1025 -0.1579,0.2241 -0.1889,0.2703 -0.1139,0.1696 -0.2081,0.2086 -0.248,0.1027 -0.01,-0.024 -0.1823,-0.329 -0.3856,-0.679 -0.3669,-0.6315 -0.3695,-0.637 -0.3403,-0.7204 0.016,-0.046 0.049,-0.1099 0.074,-0.1414 0.024,-0.031 0.044,-0.066 0.044,-0.077 0,-0.011 0.03,-0.072 0.067,-0.1348 0.2616,-0.4505 0.5198,-1.2372 0.6171,-1.8802 0.061,-0.4037 0.073,-1.0787 0.027,-1.489 -0.039,-0.3486 -0.062,-0.4629 -0.1762,-0.8885 -0.1309,-0.4876 -0.3728,-1.0776 -0.4659,-1.1362 -0.031,-0.019 -0.2108,0.075 -0.8646,0.4524 -0.4539,0.2624 -1.0523,0.6079 -1.3297,0.768 -1.0657,0.6149 -1.1928,0.691 -1.2048,0.7221 -0.011,0.029 0.1475,0.3114 1.1815,2.0995 0.1871,0.3236 0.549,0.9504 0.8043,1.3928 0.2552,0.4425 0.6784,1.175 0.9402,1.6278 0.2619,0.4528 0.4762,0.8376 0.4762,0.8552 0,0.017 -0.073,0.096 -0.1619,0.1734 -0.089,0.078 -0.2106,0.1889 -0.2702,0.247 -0.059,0.058 -0.1785,0.1489 -0.2644,0.202 -0.2152,0.1332 -0.5325,0.3163 -0.5777,0.3335 -0.029,0.011 -0.151,-0.1823 -0.5319,-0.8418 z m -1.407,-8.1176 c 0.5455,-0.3154 1.2619,-0.7294 1.592,-0.92 0.3305,-0.1907 0.6036,-0.3636 0.6076,-0.3845 0.01,-0.039 -0.363,-0.3872 -0.6159,-0.5782 -0.551,-0.4159 -1.18,-0.7332 -1.8406,-0.9282 -0.9007,-0.2659 -1.6311,-0.3086 -2.7138,-0.1586 -0.026,0.01 -0.056,0.01 -0.066,0.01 -0.048,0.01 0.014,0.1327 0.4222,0.8383 0.7427,1.2854 1.3649,2.3652 1.428,2.4787 0.1049,0.1886 0.1254,0.2162 0.1605,0.2162 0.019,0 0.4806,-0.2581 1.0261,-0.5735 z m 6.0419,-6.6971 c -0.063,-0.073 -0.3175,-0.4633 -0.5108,-0.7843 -0.4732,-0.786 -0.7632,-1.5266 -0.8898,-2.2718 -0.054,-0.3193 -0.065,-1.0245 -0.021,-1.3503 0.1713,-1.2656 0.8976,-2.5187 2.0421,-3.5234 0.4158,-0.365 1.1439,-0.9152 1.1729,-0.8862 0.01,0.01 -0.1037,0.2153 -0.2431,0.4657 -0.8952,1.6086 -1.2845,2.7737 -1.3435,4.0217 -0.026,0.5511 0.07,1.3763 0.2151,1.8551 0.076,0.2502 -0.06,0.072 -0.2518,-0.3302 -0.3276,-0.686 -0.4552,-1.3383 -0.445,-2.2754 0.01,-0.3005 0,-0.5463 -0.013,-0.5463 -0.035,0 -0.1669,0.203 -0.2726,0.4202 -0.138,0.2835 -0.2623,0.6686 -0.3282,1.0164 -0.076,0.4003 -0.075,1.1284 0,1.5772 0.1602,0.9383 0.4918,1.8538 0.8716,2.4064 0.109,0.1588 0.122,0.3281 0.016,0.2052 z m 3.3456,-0.5599 c -0.3274,-0.04 -0.6863,-0.1632 -1.0119,-0.3468 -0.7789,-0.4392 -1.4711,-1.4139 -1.7053,-2.4013 -0.061,-0.2578 -0.1192,-0.7442 -0.119,-0.9959 0,-0.5213 0.1182,-1.1843 0.3122,-1.7611 0.2238,-0.6651 0.5518,-1.2854 1.4123,-2.6703 1.0674,-1.718 1.2405,-2.0981 1.4818,-3.254 0.048,-0.2311 0.092,-0.4242 0.096,-0.4291 0.029,-0.03 0.047,0.1866 0.046,0.5731 0,0.357 -0.011,0.4964 -0.054,0.7095 -0.1289,0.6492 -0.2008,0.8242 -1.308,3.181 -0.7212,1.5348 -0.8485,1.8343 -0.9537,2.2422 -0.101,0.3918 -0.1294,0.6476 -0.1137,1.0238 0.047,1.1343 0.7251,2.1231 1.6961,2.4745 0.3041,0.11 0.4902,0.1466 0.7485,0.1473 0.4985,0 0.906,-0.1902 1.3204,-0.62 0.3189,-0.3309 0.5449,-0.7323 0.6633,-1.1786 0.1105,-0.417 0.097,-0.9929 -0.032,-1.3867 -0.054,-0.1649 -0.176,-0.4211 -0.2003,-0.4211 -0.011,0 -0.071,0.1 -0.1337,0.2221 -0.2237,0.4365 -0.4832,0.7907 -0.8011,1.0936 -0.2348,0.2237 -0.6268,0.5174 -0.6268,0.4696 0,-0.012 0.087,-0.1669 0.1944,-0.345 0.5387,-0.897 0.8717,-1.7582 1.3133,-3.3976 0.027,-0.099 0.058,-0.168 0.077,-0.168 0.017,0 0.116,0.162 0.2197,0.3602 0.6201,1.1855 0.9056,2.1772 0.9055,3.1459 0,1.3168 -0.5055,2.3946 -1.4597,3.1132 -0.3225,0.243 -0.7918,0.4801 -1.1056,0.5588 -0.2673,0.067 -0.6121,0.091 -0.8619,0.061 z m 4.9062,-1.9616 c 0.099,-0.4782 0.1548,-1.6584 0.1043,-2.2059 -0.074,-0.8053 -0.3557,-1.5777 -0.7994,-2.194 -0.1463,-0.2031 -0.5734,-0.6701 -0.5938,-0.6492 -0.01,0.01 0.041,0.1787 0.1051,0.3824 0.2279,0.723 0.3164,1.3781 0.2654,1.9665 -0.032,0.3651 -0.1189,0.8027 -0.1576,0.7899 -0.015,-0.01 -0.034,-0.1094 -0.044,-0.247 -0.1046,-1.4078 -0.6867,-2.7486 -1.7921,-4.1269 -0.2259,-0.2819 -0.7992,-0.9148 -0.8425,-0.9303 -0.034,-0.012 -0.3884,-0.3614 -0.3777,-0.3722 0.013,-0.012 0.4649,0.1499 0.8085,0.2907 2.4468,1.0027 3.8425,2.7893 3.8425,4.9188 0,0.7217 -0.1613,1.5768 -0.4369,2.3171 -0.049,0.1328 -0.1052,0.1738 -0.082,0.06 z m -0.8412,-6.0637 c -0.295,-0.3107 -0.8144,-1.1036 -1.1165,-1.7045 -0.2726,-0.542 -0.5382,-1.3732 -0.6344,-1.9844 -0.014,-0.09 -0.021,-0.1 -0.051,-0.07 -0.019,0.019 -0.1183,0.2225 -0.2213,0.4528 -0.1029,0.2303 -0.2043,0.4512 -0.2253,0.4908 l -0.038,0.072 -0.026,-0.06 c -0.014,-0.033 -0.085,-0.367 -0.1582,-0.7423 -0.073,-0.3752 -0.1382,-0.688 -0.1452,-0.695 -0.036,-0.036 -0.096,0.1252 -0.3229,0.861 -0.4008,1.3024 -0.4313,1.3929 -0.47,1.3929 -0.045,0 -0.046,0.01 0.025,-0.3006 0.319,-1.3971 0.4208,-3.1522 0.2896,-4.9947 -0.01,-0.1057 -0.019,-0.2894 -0.027,-0.4082 -0.01,-0.1189 -0.018,-0.2459 -0.024,-0.2822 -0.01,-0.036 0,-0.066 0.01,-0.066 0.01,0 0.065,0.181 0.1221,0.4023 0.2694,1.0469 0.5994,1.9035 0.9428,2.4473 0.095,0.1501 0.096,0.1508 0.1542,0.1125 0.032,-0.021 0.067,-0.052 0.076,-0.069 0.01,-0.016 0.099,-0.12 0.1976,-0.23 0.099,-0.1099 0.2287,-0.255 0.2881,-0.3223 0.1159,-0.1314 0.3772,-0.4269 0.4988,-0.5642 0.049,-0.055 0.082,-0.076 0.097,-0.06 0.021,0.022 0.01,0.1158 -0.1014,0.7805 -0.091,0.5495 -0.1239,1.6561 -0.067,2.2453 0.1079,1.1138 0.3934,2.1146 0.8814,3.0888 0.085,0.1701 0.1518,0.3093 0.1482,0.3093 -0.01,0 -0.051,-0.046 -0.1036,-0.102 z m -6.7282,-0.036 c 0.3087,-0.6152 0.5314,-1.2416 0.6425,-1.8071 0.1597,-0.8136 0.1639,-1.7059 0.013,-2.6521 -0.019,-0.118 -0.028,-0.2207 -0.021,-0.228 0.024,-0.024 0.1591,0.1443 0.5335,0.6648 0.2019,0.2806 0.3767,0.5102 0.3884,0.5102 0.036,0 0.2877,-0.3103 0.4393,-0.5403 0.078,-0.1188 0.1996,-0.335 0.2694,-0.4803 0.3801,-0.7907 0.574,-1.7324 0.6601,-3.206 0.014,-0.2443 0.031,-0.5091 0.036,-0.5883 0.01,-0.079 0.014,-0.2224 0.017,-0.3182 0.01,-0.2551 0.046,-0.2244 0.079,0.066 0.079,0.7175 0.097,1.8088 0.039,2.4015 -0.1365,1.3914 -0.4545,2.5235 -1.0084,3.5902 -0.2715,0.5228 -0.5577,0.9573 -0.9793,1.4864 -0.2354,0.2955 -1.0347,1.1201 -1.0851,1.1196 -0.018,0 -0.028,-0.01 -0.023,-0.018 z" style="fill: none; stroke: rgb(255, 255, 255); stroke-width: 0.151187; stroke-miterlimit: 4;" inkscape:connector-curvature="0" class="GlQYqwxf_0"></path>
        <path id="path302" d="m -803.9137,307.0767 c -0.3657,0 -0.7341,0.021 -0.9987,0.058 -1.1539,0.1565 -2.1518,0.5139 -3.3261,1.1917 -1.0166,0.5866 -1.8839,1.327 -2.5876,2.2085 -0.2489,0.312 -0.4525,0.6183 -0.7977,1.2008 -0.5207,0.8788 -0.7662,1.205 -1.0184,1.3536 -0.1623,0.096 -0.3912,0.1478 -0.7701,0.1761 -0.4209,0.031 -0.5564,0.075 -0.694,0.2244 -0.2586,0.2807 -0.2138,0.7953 0.099,1.1346 0.1478,0.1603 0.2264,0.1906 0.5457,0.2098 0.3228,0.019 0.5628,0.068 0.7371,0.1498 0.1528,0.072 0.3531,0.248 0.4439,0.3911 0.059,0.093 0.068,0.1305 0.068,0.2882 10e-5,0.2828 0.044,0.9215 0.085,1.226 0.4072,3.0662 2.3588,5.6763 5.1144,6.8399 0.7195,0.3039 1.4441,0.4939 2.2573,0.5917 0.322,0.039 1.3788,0.046 1.7206,0.012 0.829,-0.083 1.6096,-0.2706 2.3379,-0.5634 0.3443,-0.1383 0.8135,-0.3676 1.056,-0.5161 0.086,-0.053 0.1568,-0.089 0.1568,-0.08 0,0.01 0.01,0.01 0.013,0.01 0.01,-0.01 -0.046,-0.1337 -0.1175,-0.282 -0.072,-0.1482 -0.1366,-0.2589 -0.1446,-0.2459 -0.021,0.034 -0.464,0.2891 -0.7517,0.4331 -0.7674,0.3838 -1.6431,0.6427 -2.5408,0.7511 -0.1515,0.018 -0.5098,0.032 -0.8405,0.032 -0.9096,0 -1.6162,-0.1135 -2.4375,-0.3915 -1.8391,-0.6225 -3.4051,-1.9445 -4.3821,-3.6994 -0.5294,-0.9509 -0.8569,-1.9919 -1.0019,-3.185 -0.038,-0.3115 -0.038,-1.4656 0,-1.7771 0.1218,-1.0018 0.3637,-1.8669 0.7579,-2.7105 0.5672,-1.2138 1.5188,-2.3599 2.6004,-3.1322 1.0588,-0.7559 2.2075,-1.2082 3.5266,-1.3886 0.4374,-0.06 1.4357,-0.06 1.8732,0 1.7642,0.2412 3.2662,0.9845 4.516,2.2349 0.2771,0.2771 0.7415,0.814 0.7712,0.8915 0.01,0.018 0.068,-0.01 0.1662,-0.076 0.085,-0.058 0.2254,-0.1434 0.3109,-0.1912 0.1606,-0.09 0.1853,-0.1097 0.1133,-0.092 -0.029,0.01 -0.1011,-0.054 -0.2341,-0.1983 -0.2611,-0.2839 -0.8958,-0.855 -1.2217,-1.0992 -0.3521,-0.2638 -1.0243,-0.7171 -1.3196,-0.8898 -0.9173,-0.5365 -1.9842,-0.8935 -3.1022,-1.038 -0.2538,-0.033 -0.6168,-0.048 -0.9825,-0.046 z m 23.9865,0 c -0.3656,0 -0.7286,0.012 -0.9824,0.046 -0.9097,0.1176 -1.7437,0.3609 -2.5259,0.7366 -0.4325,0.2078 -0.7098,0.3703 -1.2205,0.7152 -0.7557,0.5106 -1.2532,0.9112 -1.8633,1.5004 l -0.3263,0.3152 0.2999,0.1877 c 0.2926,0.1833 0.3007,0.1868 0.3342,0.1389 0.2538,-0.3622 0.9137,-1.0611 1.3186,-1.3964 1.155,-0.9568 2.476,-1.5337 3.9833,-1.7399 0.4374,-0.06 1.4356,-0.06 1.8731,0 1.7696,0.2421 3.2797,0.9913 4.527,2.2463 1.2021,1.2094 1.9975,2.7618 2.2792,4.4486 0.091,0.5433 0.1079,0.7699 0.1079,1.4251 0,0.6552 -0.017,0.8818 -0.1079,1.4251 -0.2817,1.6867 -1.08,3.2448 -2.279,4.4481 -0.3564,0.3577 -0.6382,0.5994 -1.0006,0.8581 -1.0792,0.7705 -2.2911,1.2392 -3.6227,1.4014 -0.3856,0.047 -1.3845,0.041 -1.765,-0.011 -0.9135,-0.1246 -1.7094,-0.3655 -2.4719,-0.7479 -0.293,-0.1469 -0.6448,-0.3487 -0.7683,-0.4406 -0.045,-0.034 -0.074,-0.049 -0.065,-0.034 0.01,0.015 -0.043,0.1477 -0.1173,0.2948 -0.074,0.1471 -0.1226,0.2604 -0.1086,0.2517 0.014,-0.01 0.1146,0.038 0.2234,0.1033 0.9438,0.567 2.1558,0.9575 3.356,1.0813 0.1122,0.012 0.4797,0.023 0.8167,0.024 0.6381,0.01 0.9843,-0.024 1.5007,-0.1172 3.5654,-0.6452 6.3241,-3.6176 6.8194,-7.3482 0.041,-0.3045 0.084,-0.9432 0.085,-1.226 1e-4,-0.1577 0.01,-0.1954 0.068,-0.2882 0.091,-0.1432 0.2911,-0.3195 0.444,-0.3911 0.1742,-0.082 0.4142,-0.1303 0.737,-0.1497 0.3193,-0.019 0.3978,-0.049 0.5457,-0.2099 0.3127,-0.3393 0.3576,-0.8539 0.099,-1.1345 -0.1376,-0.1492 -0.2732,-0.1932 -0.694,-0.2245 -0.379,-0.028 -0.6077,-0.081 -0.7701,-0.1761 -0.2522,-0.1486 -0.4977,-0.4748 -1.0184,-1.3535 -0.3452,-0.5826 -0.5487,-0.889 -0.7977,-1.2008 -0.7036,-0.8816 -1.571,-1.6219 -2.5876,-2.2086 -1.1743,-0.6778 -2.1722,-1.0353 -3.3261,-1.1918 -0.2646,-0.036 -0.6329,-0.055 -0.9987,-0.058 z m -8.4663,6.1501 c -0.019,-0.022 -0.234,1.0577 -0.2644,1.3363 -0.06,0.5514 0.08,1.6927 0.33,2.6931 0.046,0.1823 0.077,0.3416 0.069,0.354 -0.023,0.037 0.06,-0.01 0.308,-0.1506 0.1296,-0.077 0.2476,-0.1324 0.2623,-0.1232 0.018,0.011 0.021,0 0.01,-0.029 -0.01,-0.025 -0.038,-0.1809 -0.063,-0.3462 -0.1666,-1.0972 -0.1099,-2.2443 0.1655,-3.3444 l 0.089,-0.3543 h -0.4511 c -0.3438,0 -0.4515,-0.01 -0.453,-0.03 0,0 0,-0.01 0,-0.01 z" style="fill: none; stroke: rgb(255, 170, 170); stroke-width: 0.201583; stroke-miterlimit: 4;" inkscape:connector-curvature="0" class="GlQYqwxf_1"></path>
      </g>
    </g>
  </g>
<style data-made-with="vivus-instant">.GlQYqwxf_0{stroke-dasharray:529 531;stroke-dashoffset:530;animation:GlQYqwxf_draw_0 2300ms ease-in-out 0ms infinite,GlQYqwxf_fade 2300ms linear 0ms infinite;}.GlQYqwxf_1{stroke-dasharray:171 173;stroke-dashoffset:172;animation:GlQYqwxf_draw_1 2300ms ease-in-out 0ms infinite,GlQYqwxf_fade 2300ms linear 0ms infinite;}@keyframes GlQYqwxf_draw{100%{stroke-dashoffset:0;}}@keyframes GlQYqwxf_fade{0%{stroke-opacity:1;}91.30434782608695%{stroke-opacity:1;}100%{stroke-opacity:0;}}@keyframes GlQYqwxf_draw_0{0%{stroke-dashoffset: 530}86.95652173913044%{ stroke-dashoffset: 0;}100%{ stroke-dashoffset: 0;}}@keyframes GlQYqwxf_draw_1{0%{stroke-dashoffset: 172}86.95652173913044%{ stroke-dashoffset: 0;}100%{ stroke-dashoffset: 0;}}</style></svg>
